<?xml version="1.0" encoding="UTF-8" standalone="no"?>
<!-- Created with Inkscape (http://www.inkscape.org/) -->

<svg
   xmlns:dc="http://purl.org/dc/elements/1.1/"
   xmlns:cc="http://creativecommons.org/ns#"
   xmlns:rdf="http://www.w3.org/1999/02/22-rdf-syntax-ns#"
   xmlns:svg="http://www.w3.org/2000/svg"
   xmlns="http://www.w3.org/2000/svg"
   xmlns:sodipodi="http://sodipodi.sourceforge.net/DTD/sodipodi-0.dtd"
   xmlns:inkscape="http://www.inkscape.org/namespaces/inkscape"
   width="72"
   height="72"
   id="svg2"
   sodipodi:version="0.32"
   inkscape:version="0.48.2 r9819"
   version="1.0"
   sodipodi:docname="departure.svg"
   inkscape:output_extension="org.inkscape.output.svg.inkscape"
   inkscape:export-filename="F:\Workspaces\Android\bartrunner-git\departure.png"
   inkscape:export-xdpi="160"
   inkscape:export-ydpi="160">
  <defs
     id="defs4">
    <inkscape:perspective
       sodipodi:type="inkscape:persp3d"
       inkscape:vp_x="0 : 526.18109 : 1"
       inkscape:vp_y="0 : 1000 : 0"
       inkscape:vp_z="744.09448 : 526.18109 : 1"
       inkscape:persp3d-origin="372.04724 : 350.78739 : 1"
       id="perspective10" />
  </defs>
  <sodipodi:namedview
     id="base"
     pagecolor="#ffffff"
     bordercolor="#666666"
     borderopacity="1.0"
     gridtolerance="10000"
     guidetolerance="10"
     objecttolerance="10"
     inkscape:pageopacity="0.0"
     inkscape:pageshadow="2"
     inkscape:zoom="12.736111"
     inkscape:cx="-2.30834"
     inkscape:cy="37.983218"
     inkscape:document-units="px"
     inkscape:current-layer="layer1"
     showgrid="false"
     width="72px"
     inkscape:window-width="1920"
     inkscape:window-height="1052"
     inkscape:window-x="-9"
     inkscape:window-y="-8"
     inkscape:snap-global="false"
     inkscape:window-maximized="0" />
  <metadata
     id="metadata7">
    <rdf:RDF>
      <cc:Work
         rdf:about="">
        <dc:format>image/svg+xml</dc:format>
        <dc:type
           rdf:resource="http://purl.org/dc/dcmitype/StillImage" />
        <dc:title></dc:title>
      </cc:Work>
    </rdf:RDF>
  </metadata>
  <g
     inkscape:label="Layer 1"
     inkscape:groupmode="layer"
     id="layer1">
    <path
       style="fill:#ffffff;fill-opacity:1;fill-rule:evenodd;stroke:none"
       d="m 24.743145,11.609206 c -6.026936,0.01276 -12.038191,1.041686 -15.6562502,3.3125 -2.2743865,1.374178 -5.4688336,32.650782 -2.625,34.34375 3.411287,2.030779 35.3254332,1.511637 37.2500002,0.75 2.789572,-1.103959 0.153375,-34.051105 -3.21875,-35.65625 -3.689897,-1.756404 -9.723064,-2.762765 -15.75,-2.75 z m -4.0625,4.53125 c 1.062477,-0.02811 1.892689,0.06556 2.25,0.28125 1.238507,0.747614 0.568709,23.049807 -0.71875,23.875 -0.923705,0.592046 -12.9122822,0.480838 -13.8437502,-0.65625 -1.12794,-1.376932 1.7050042,-19.923758 2.7187502,-21.09375 1.095658,-1.264526 6.40632,-2.321932 9.59375,-2.40625 z m -10.8125002,27.625 c 0.9719972,-0.01644 1.9046142,0.734366 2.0625002,1.6875 0.157886,0.953134 -0.496753,1.733559 -1.46875,1.75 -0.9719962,0.01644 -1.9046144,-0.734366 -2.0625002,-1.6875 -0.1578858,-0.953134 0.4967539,-1.733559 1.46875,-1.75 z m 29.0937502,0.46875 c 1.023155,-0.01731 1.985343,0.812007 2.15625,1.84375 0.170907,1.031743 -0.539345,1.888943 -1.5625,1.90625 -1.023154,0.01731 -1.985343,-0.812007 -2.15625,-1.84375 -0.170907,-1.031743 0.539346,-1.888943 1.5625,-1.90625 z"
       id="path2393"
       inkscape:connector-curvature="0" />
    <rect
       style="fill:#ffffff;fill-opacity:1"
       id="rect3899"
       width="3.1943014"
       height="11.719805"
       x="26.055975"
       y="43.383099"
       ry="1.6742576"
       transform="matrix(0.97210432,0.23454889,-0.21232976,0.97719807,0,0)"
       inkscape:transform-center-x="0.45927426"
       inkscape:transform-center-y="1.8227312" />
    <rect
       style="fill:#ffffff;fill-opacity:1"
       id="rect3899-1"
       width="3.1949658"
       height="11.717586"
       x="20.555859"
       y="55.671436"
       ry="1.6739407"
       transform="matrix(0.96996262,-0.24325402,0.22029776,0.97543267,0,0)" />
    <rect
       style="fill:#ffffff;fill-opacity:1"
       id="rect3921"
       width="19.909697"
       height="16.784204"
       x="46.749786"
       y="40.111366"
       ry="1.6784203" />
    <path
       sodipodi:type="arc"
       style="fill:#ffffff;fill-opacity:1"
       id="path3925"
       sodipodi:cx="56.610687"
       sodipodi:cy="23.986914"
       sodipodi:rx="2.4340241"
       sodipodi:ry="2.7088332"
       d="m 59.044711,23.986914 a 2.4340241,2.7088332 0 1 1 -4.868048,0 2.4340241,2.7088332 0 1 1 4.868048,0 z"
       transform="matrix(1.0142884,0,0,1.0688274,-2.8651784,-3.0240355)" />
    <rect
       style="fill:#ffffff;fill-opacity:1"
       id="rect3927"
       width="3.7430229"
       height="9.2313118"
       x="52.881977"
       y="26.096556"
       ry="1.6784203" />
    <rect
       style="fill:#ffffff;fill-opacity:1"
       id="rect3929"
       width="1.8673232"
       height="5.852253"
       x="29.147854"
       y="54.950256"
       ry="1.2698284"
       transform="matrix(0.78735859,-0.61649529,0.57570614,0.81765668,0,0)"
       inkscape:transform-center-x="-1.9979099"
       inkscape:transform-center-y="1.6057666" />
    <rect
       style="fill:#ffffff;fill-opacity:1"
       id="rect3931"
       width="1.7520533"
       height="4.363893"
       x="57.262108"
       y="29.873003"
       ry="0.92313117" />
    <rect
       style="fill:#ffffff;fill-opacity:1"
       id="rect3929-7"
       width="1.865285"
       height="5.8580422"
       x="58.925991"
       y="-10.999067"
       ry="1.2710847"
       transform="matrix(0.80068044,0.59909167,-0.55936824,0.82891928,0,0)"
       inkscape:transform-center-x="0.83145975"
       inkscape:transform-center-y="2.4986547" />
    <rect
       style="fill:#ffffff;fill-opacity:1"
       id="rect3931-4"
       width="1.8187417"
       height="4.208703"
       x="53.571827"
       y="-28.423727"
       ry="0.89030248"
       transform="matrix(0.52546884,0.85081284,-0.8246912,0.56558325,0,0)" />
    <rect
       style="fill:#ffffff;fill-opacity:1"
       id="rect3929-7-0"
       width="1.8448521"
       height="5.9197183"
       x="39.623714"
       y="52.104515"
       ry="1.2844672"
       transform="matrix(0.92577842,-0.37806654,0.34453051,0.93877512,0,0)"
       inkscape:transform-center-x="-1.5204516"
       inkscape:transform-center-y="2.1080532" />
    <rect
       style="fill:#ffffff;fill-opacity:1"
       id="rect3931-9"
       width="1.7686416"
       height="4.3263474"
       x="36.450794"
       y="57.070484"
       ry="0.91518885"
       transform="matrix(0.90125744,-0.433284,0.39730647,0.91768599,0,0)" />
    <rect
       style="fill:#ffffff;fill-opacity:1"
       id="rect3929-7-4"
       width="1.8729073"
       height="5.0959587"
       x="62.501968"
       y="-10.766301"
       ry="1.1057268"
       transform="matrix(0.74968262,0.66179753,-0.62049151,0.78421316,0,0)"
       inkscape:transform-center-x="0.81643284"
       inkscape:transform-center-y="2.1779835" />
    <rect
       style="fill:#ffffff;fill-opacity:1"
       id="rect3931-9-8"
       width="1.7520682"
       height="4.3638597"
       x="50.280754"
       y="36.420254"
       ry="0.92312407"
       transform="matrix(0.99991421,-0.01309843,0.01179598,0.99993043,0,0)" />
  </g>
</svg>
