<?xml version="1.0" encoding="UTF-8" standalone="no"?>
<!-- Created with Inkscape (http://www.inkscape.org/) -->

<svg
   xmlns:dc="http://purl.org/dc/elements/1.1/"
   xmlns:cc="http://creativecommons.org/ns#"
   xmlns:rdf="http://www.w3.org/1999/02/22-rdf-syntax-ns#"
   xmlns:svg="http://www.w3.org/2000/svg"
   xmlns="http://www.w3.org/2000/svg"
   xmlns:sodipodi="http://sodipodi.sourceforge.net/DTD/sodipodi-0.dtd"
   xmlns:inkscape="http://www.inkscape.org/namespaces/inkscape"
   width="72"
   height="72"
   id="svg2"
   sodipodi:version="0.32"
   inkscape:version="0.48.2 r9819"
   version="1.0"
   sodipodi:docname="board.svg"
   inkscape:output_extension="org.inkscape.output.svg.inkscape"
   inkscape:export-filename="F:\Workspaces\Android\bartrunner\res\drawable-hdpi\boarding_icon.png"
   inkscape:export-xdpi="60"
   inkscape:export-ydpi="60">
  <defs
     id="defs4">
    <inkscape:perspective
       sodipodi:type="inkscape:persp3d"
       inkscape:vp_x="0 : 526.18109 : 1"
       inkscape:vp_y="0 : 1000 : 0"
       inkscape:vp_z="744.09448 : 526.18109 : 1"
       inkscape:persp3d-origin="372.04724 : 350.78739 : 1"
       id="perspective10" />
  </defs>
  <sodipodi:namedview
     id="base"
     pagecolor="#ffffff"
     bordercolor="#666666"
     borderopacity="1.0"
     gridtolerance="10000"
     guidetolerance="10"
     objecttolerance="10"
     inkscape:pageopacity="0.0"
     inkscape:pageshadow="2"
     inkscape:zoom="8.2888628"
     inkscape:cx="-13.152984"
     inkscape:cy="22.864462"
     inkscape:document-units="px"
     inkscape:current-layer="layer1"
     showgrid="false"
     width="72px"
     inkscape:window-width="1920"
     inkscape:window-height="1052"
     inkscape:window-x="-9"
     inkscape:window-y="-8"
     inkscape:snap-global="false"
     inkscape:window-maximized="0" />
  <metadata
     id="metadata7">
    <rdf:RDF>
      <cc:Work
         rdf:about="">
        <dc:format>image/svg+xml</dc:format>
        <dc:type
           rdf:resource="http://purl.org/dc/dcmitype/StillImage" />
        <dc:title />
      </cc:Work>
    </rdf:RDF>
  </metadata>
  <g
     inkscape:label="Layer 1"
     inkscape:groupmode="layer"
     id="layer1">
    <g
       id="g3936"
       transform="matrix(1.07372,0,0,1.2253945,-3.3921025,-6.4292846)"
       style="fill:#ffffff;fill-opacity:1">
      <path
         id="rect3822"
         d="m 31.5625,16.1875 0,0.28125 c 0.06233,-0.09701 0.116505,-0.202952 0.1875,-0.28125 l -0.1875,0 z m 2.1875,0.96875 c -0.590149,0 -1.103388,0.628761 -1.3125,1.53125 l 4.25,0 c 0.8481,0 1.53125,1.177592 1.53125,2.65625 l 0,10.625 c 0,1.478658 -0.68315,2.65625 -1.53125,2.65625 l -4.34375,0 0,15.03125 c 0,1.371605 0.627703,2.46875 1.40625,2.46875 l 6.6875,0 c 0.164809,-0.429092 0.25,-0.945503 0.25,-1.5 l 0,-31.75 c 0,-0.652773 -0.122056,-1.251936 -0.34375,-1.71875 l -6.59375,0 z m -2.1875,35.65625 0,0.5 0.46875,0 c -0.178003,-0.118196 -0.32966,-0.281382 -0.46875,-0.5 z"
         style="fill:#ffffff;fill-opacity:1"
         inkscape:connector-curvature="0" />
      <path
         id="rect2997"
         d="m 8.59375,13.75 c -1.662,0 -3,1.338 -3,3 l 0,35.75 c 0,1.662 1.338,3 3,3 l 56.1875,0 c 1.662,0 3,-1.338 3,-3 l 0,-35.75 c 0,-1.662 -1.338,-3 -3,-3 l -56.1875,0 z m 24.53125,2.3125 28.6875,0 c 0.8481,0 1.53125,1.177592 1.53125,2.65625 l 0,31.8125 c 0,1.478657 -0.68315,2.6875 -1.53125,2.6875 l -28.6875,0 c -0.8481,0 -1.53125,-1.208843 -1.53125,-2.6875 l 0,-31.8125 c 0,-1.478658 0.68315,-2.65625 1.53125,-2.65625 z m -13.90625,6.21875 c 2.134279,0 3.875,1.918195 3.875,4.28125 0,2.363054 -1.740721,4.28125 -3.875,4.28125 -2.134281,0 -3.875,-1.918196 -3.875,-4.28125 0,-2.363055 1.740719,-4.28125 3.875,-4.28125 z m -0.625,9.4375 0.625,0 c 0.76757,0 1.427333,0.323204 1.90625,0.8125 0.01382,0.0044 0.01744,0.02645 0.03125,0.03125 0.398269,0.138416 0.795793,0.426894 1.09375,0.84375 l 2.90625,4.0625 c 0.04418,0.06181 0.08746,0.124004 0.125,0.1875 l 2.875,1.875 c 0.636709,0.412254 0.811942,1.223592 0.40625,1.84375 l -0.03125,0.0625 c -0.405692,0.620158 -1.238291,0.787254 -1.875,0.375 L 23.625,39.84375 C 23.58353,39.82223 23.54078,39.80606 23.5,39.78125 23.45693,39.75336 23.4139,39.71903 23.375,39.6875 23.33873,39.66154 23.31659,39.62235 23.28125,39.59375 23.115691,39.459753 22.947672,39.314112 22.8125,39.125 l -0.96875,-1.34375 0,5.09375 c 0,0.05417 -0.02767,0.102996 -0.03125,0.15625 0.02054,0.02235 0.04275,0.03894 0.0625,0.0625 l 2.53125,3 c 0.489868,0.212626 0.81955,0.683211 0.8125,1.25 L 25.1875,51.0625 c -0.0094,0.755719 -0.646632,1.3844 -1.40625,1.375 -0.759617,-0.0094 -1.35315,-0.650531 -1.34375,-1.40625 l 0.03125,-2.8125 -2.5,-3 c -0.238476,0.06628 -0.487796,0.125 -0.75,0.125 l -0.625,0 c -0.09625,0 -0.18776,-0.02191 -0.28125,-0.03125 l -1.09375,2.78125 c -0.01891,0.118226 -0.04136,0.229499 -0.09375,0.34375 l -0.21875,0.46875 -0.3125,0.8125 c -0.08499,0.218647 -0.18381,0.421185 -0.3125,0.59375 -0.01657,0.02222 -0.04534,0.04113 -0.0625,0.0625 L 15.5625,51.84375 C 15.247183,52.531351 14.441145,52.813699 13.75,52.5 13.058847,52.186301 12.778433,51.375098 13.09375,50.6875 L 13.8125,49.125 c 0.0039,-0.0199 -0.0044,-0.04254 0,-0.0625 0.02743,-0.123055 0.04578,-0.251597 0.09375,-0.375 l 1.8125,-4.65625 c 0.0861,-0.221492 0.212909,-0.388359 0.34375,-0.5625 -0.04965,-0.190791 -0.09375,-0.387629 -0.09375,-0.59375 l 0,-5.59375 -0.9375,1.25 c -0.01858,0.02492 -0.04329,0.03852 -0.0625,0.0625 9.34e-4,0.02076 0,0.04151 0,0.0625 l 0,3.71875 c 0,0.755778 -0.584072,1.375 -1.34375,1.375 -0.759675,0 -1.375,-0.619222 -1.375,-1.375 l 0,-3.71875 c 0,-0.119479 0.03376,-0.233457 0.0625,-0.34375 -0.04472,-0.476122 0.08051,-1.021319 0.4375,-1.5 l 2.96875,-4 c 0.475465,-0.637541 1.16346,-0.948192 1.75,-0.875 0.0088,-0.0039 0.0224,0.0038 0.03125,0 0.331847,-0.141407 0.703884,-0.21875 1.09375,-0.21875 z"
         style="fill:#ffffff;fill-opacity:1"
         inkscape:connector-curvature="0" />
      <path
         id="rect3822-0"
         d="m 63.425059,16.243187 0,0.28125 c -0.06233,-0.09701 -0.116505,-0.202952 -0.1875,-0.28125 l 0.1875,0 z m -2.1875,0.96875 c 0.590149,0 1.103388,0.628761 1.3125,1.53125 l -4.25,0 c -0.8481,0 -1.53125,1.177592 -1.53125,2.65625 l 0,10.625 c 0,1.478658 0.68315,2.65625 1.53125,2.65625 l 4.34375,0 0,15.03125 c 0,1.371605 -0.627703,2.46875 -1.40625,2.46875 l -6.6875,0 c -0.164809,-0.429092 -0.25,-0.945503 -0.25,-1.5 l 0,-31.75 c 0,-0.652773 0.122056,-1.251936 0.34375,-1.71875 l 6.59375,0 z m 2.1875,35.65625 0,0.5 -0.46875,0 c 0.178003,-0.118196 0.32966,-0.281382 0.46875,-0.5 z"
         style="fill:#ffffff;fill-opacity:1"
         inkscape:connector-curvature="0" />
    </g>
  </g>
</svg>
