<?xml version="1.0" encoding="UTF-8" standalone="no"?>
<!-- Created with Inkscape (http://www.inkscape.org/) -->

<svg
   xmlns:dc="http://purl.org/dc/elements/1.1/"
   xmlns:cc="http://creativecommons.org/ns#"
   xmlns:rdf="http://www.w3.org/1999/02/22-rdf-syntax-ns#"
   xmlns:svg="http://www.w3.org/2000/svg"
   xmlns="http://www.w3.org/2000/svg"
   xmlns:sodipodi="http://sodipodi.sourceforge.net/DTD/sodipodi-0.dtd"
   xmlns:inkscape="http://www.inkscape.org/namespaces/inkscape"
   id="svg2"
   version="1.1"
   inkscape:version="0.48.2 r9819"
   width="120"
   height="120"
   xml:space="preserve"
   sodipodi:docname="cancelAlarm.svg"><metadata
     id="metadata8"><rdf:RDF><cc:Work
         rdf:about=""><dc:format>image/svg+xml</dc:format><dc:type
           rdf:resource="http://purl.org/dc/dcmitype/StillImage" /><dc:title></dc:title></cc:Work></rdf:RDF></metadata><defs
     id="defs6"><linearGradient
       x1="0"
       y1="0"
       x2="1"
       y2="0"
       gradientUnits="userSpaceOnUse"
       gradientTransform="matrix(0,96,96,0,48,0)"
       spreadMethod="pad"
       id="linearGradient24"><stop
         style="stop-opacity:1;stop-color:#272d33"
         offset="0"
         id="stop26" /><stop
         style="stop-opacity:1;stop-color:#000000"
         offset="1"
         id="stop28" /></linearGradient><clipPath
       clipPathUnits="userSpaceOnUse"
       id="clipPath38"><path
         d="M 0,96 96,96 96,0 0,0 0,96 z"
         id="path40" /></clipPath><clipPath
       clipPathUnits="userSpaceOnUse"
       id="clipPath50"><path
         d="M 0,96 96,96 96,0 0,0 0,96 z"
         id="path52" /></clipPath><clipPath
       clipPathUnits="userSpaceOnUse"
       id="clipPath62"><path
         d="M 0,96 96,96 96,0 0,0 0,96 z"
         id="path64" /></clipPath><clipPath
       clipPathUnits="userSpaceOnUse"
       id="clipPath74"><path
         d="M 0,96 96,96 96,0 0,0 0,96 z"
         id="path76" /></clipPath><clipPath
       clipPathUnits="userSpaceOnUse"
       id="clipPath90"><path
         d="M 0,96 96,96 96,0 0,0 0,96 z"
         id="path92" /></clipPath><clipPath
       clipPathUnits="userSpaceOnUse"
       id="clipPath100"><path
         d="M 0,96 96,96 96,0 0,0 0,96 z"
         id="path102" /></clipPath><clipPath
       clipPathUnits="userSpaceOnUse"
       id="clipPath110"><path
         d="M 0,96 96,96 96,0 0,0 0,96 z"
         id="path112" /></clipPath><clipPath
       clipPathUnits="userSpaceOnUse"
       id="clipPath122"><path
         d="M 0,96 96,96 96,0 0,0 0,96 z"
         id="path124" /></clipPath><clipPath
       clipPathUnits="userSpaceOnUse"
       id="clipPath138"><path
         d="M 0,96 96,96 96,0 0,0 0,96 z"
         id="path140" /></clipPath><clipPath
       clipPathUnits="userSpaceOnUse"
       id="clipPath148"><path
         d="M 0,96 96,96 96,0 0,0 0,96 z"
         id="path150" /></clipPath><clipPath
       clipPathUnits="userSpaceOnUse"
       id="clipPath176"><path
         d="M 0,96 96,96 96,0 0,0 0,96 z"
         id="path178" /></clipPath><clipPath
       clipPathUnits="userSpaceOnUse"
       id="clipPath200"><path
         d="M 0,96 96,96 96,0 0,0 0,96 z"
         id="path202" /></clipPath><clipPath
       clipPathUnits="userSpaceOnUse"
       id="clipPath216"><path
         d="M 0,96 96,96 96,0 0,0 0,96 z"
         id="path218" /></clipPath><clipPath
       clipPathUnits="userSpaceOnUse"
       id="clipPath232"><path
         d="M 0,96 96,96 96,0 0,0 0,96 z"
         id="path234" /></clipPath><clipPath
       clipPathUnits="userSpaceOnUse"
       id="clipPath252"><path
         d="M 0,96 96,96 96,0 0,0 0,96 z"
         id="path254" /></clipPath><clipPath
       clipPathUnits="userSpaceOnUse"
       id="clipPath268"><path
         d="M 0,96 96,96 96,0 0,0 0,96 z"
         id="path270" /></clipPath><clipPath
       clipPathUnits="userSpaceOnUse"
       id="clipPath278"><path
         d="M 0,96 96,96 96,0 0,0 0,96 z"
         id="path280" /></clipPath><clipPath
       clipPathUnits="userSpaceOnUse"
       id="clipPath302"><path
         d="M 0,96 96,96 96,0 0,0 0,96 z"
         id="path304" /></clipPath><clipPath
       clipPathUnits="userSpaceOnUse"
       id="clipPath324"><path
         d="M 0,96 96,96 96,0 0,0 0,96 z"
         id="path326" /></clipPath><clipPath
       clipPathUnits="userSpaceOnUse"
       id="clipPath344"><path
         d="M 0,96 96,96 96,0 0,0 0,96 z"
         id="path346" /></clipPath><clipPath
       clipPathUnits="userSpaceOnUse"
       id="clipPath356"><path
         d="M 0,96 96,96 96,0 0,0 0,96 z"
         id="path358" /></clipPath><clipPath
       clipPathUnits="userSpaceOnUse"
       id="clipPath380"><path
         d="M 0,96 96,96 96,0 0,0 0,96 z"
         id="path382" /></clipPath><clipPath
       clipPathUnits="userSpaceOnUse"
       id="clipPath392"><path
         d="M 0,96 96,96 96,0 0,0 0,96 z"
         id="path394" /></clipPath><clipPath
       clipPathUnits="userSpaceOnUse"
       id="clipPath404"><path
         d="M 0,96 96,96 96,0 0,0 0,96 z"
         id="path406" /></clipPath><clipPath
       clipPathUnits="userSpaceOnUse"
       id="clipPath416"><path
         d="M 0,96 96,96 96,0 0,0 0,96 z"
         id="path418" /></clipPath><clipPath
       clipPathUnits="userSpaceOnUse"
       id="clipPath428"><path
         d="M 0,96 96,96 96,0 0,0 0,96 z"
         id="path430" /></clipPath><clipPath
       clipPathUnits="userSpaceOnUse"
       id="clipPath440"><path
         d="M 0,96 96,96 96,0 0,0 0,96 z"
         id="path442" /></clipPath><clipPath
       clipPathUnits="userSpaceOnUse"
       id="clipPath456"><path
         d="M 0,96 96,96 96,0 0,0 0,96 z"
         id="path458" /></clipPath><clipPath
       clipPathUnits="userSpaceOnUse"
       id="clipPath468"><path
         d="M 0,96 96,96 96,0 0,0 0,96 z"
         id="path470" /></clipPath><clipPath
       clipPathUnits="userSpaceOnUse"
       id="clipPath492"><path
         d="M 0,96 96,96 96,0 0,0 0,96 z"
         id="path494" /></clipPath><clipPath
       clipPathUnits="userSpaceOnUse"
       id="clipPath504"><path
         d="M 0,96 96,96 96,0 0,0 0,96 z"
         id="path506" /></clipPath><clipPath
       clipPathUnits="userSpaceOnUse"
       id="clipPath516"><path
         d="M 0,96 96,96 96,0 0,0 0,96 z"
         id="path518" /></clipPath><clipPath
       clipPathUnits="userSpaceOnUse"
       id="clipPath532"><path
         d="M 0,96 96,96 96,0 0,0 0,96 z"
         id="path534" /></clipPath><clipPath
       clipPathUnits="userSpaceOnUse"
       id="clipPath544"><path
         d="M 0,96 96,96 96,0 0,0 0,96 z"
         id="path546" /></clipPath><clipPath
       clipPathUnits="userSpaceOnUse"
       id="clipPath560"><path
         d="M 0,96 96,96 96,0 0,0 0,96 z"
         id="path562" /></clipPath><clipPath
       clipPathUnits="userSpaceOnUse"
       id="clipPath572"><path
         d="M 0,96 96,96 96,0 0,0 0,96 z"
         id="path574" /></clipPath><clipPath
       clipPathUnits="userSpaceOnUse"
       id="clipPath584"><path
         d="M 0,96 96,96 96,0 0,0 0,96 z"
         id="path586" /></clipPath><clipPath
       clipPathUnits="userSpaceOnUse"
       id="clipPath600"><path
         d="M 0,96 96,96 96,0 0,0 0,96 z"
         id="path602" /></clipPath><clipPath
       clipPathUnits="userSpaceOnUse"
       id="clipPath612"><path
         d="M 0,96 96,96 96,0 0,0 0,96 z"
         id="path614" /></clipPath><clipPath
       clipPathUnits="userSpaceOnUse"
       id="clipPath626"><path
         d="M 0,96 96,96 96,0 0,0 0,96 z"
         id="path628" /></clipPath><clipPath
       clipPathUnits="userSpaceOnUse"
       id="clipPath638"><path
         d="M 0,96 96,96 96,0 0,0 0,96 z"
         id="path640" /></clipPath><clipPath
       clipPathUnits="userSpaceOnUse"
       id="clipPath650"><path
         d="M 0,96 96,96 96,0 0,0 0,96 z"
         id="path652" /></clipPath><clipPath
       clipPathUnits="userSpaceOnUse"
       id="clipPath662"><path
         d="M 0,96 96,96 96,0 0,0 0,96 z"
         id="path664" /></clipPath><clipPath
       clipPathUnits="userSpaceOnUse"
       id="clipPath714"><path
         d="M 0,96 96,96 96,0 0,0 0,96 z"
         id="path716" /></clipPath><clipPath
       clipPathUnits="userSpaceOnUse"
       id="clipPath730"><path
         d="M 0,96 96,96 96,0 0,0 0,96 z"
         id="path732" /></clipPath><clipPath
       clipPathUnits="userSpaceOnUse"
       id="clipPath778"><path
         d="M 0,96 96,96 96,0 0,0 0,96 z"
         id="path780" /></clipPath><clipPath
       clipPathUnits="userSpaceOnUse"
       id="clipPath794"><path
         d="M 0,96 96,96 96,0 0,0 0,96 z"
         id="path796" /></clipPath><clipPath
       clipPathUnits="userSpaceOnUse"
       id="clipPath810"><path
         d="M 0,96 96,96 96,0 0,0 0,96 z"
         id="path812" /></clipPath><clipPath
       clipPathUnits="userSpaceOnUse"
       id="clipPath832"><path
         d="M 0,96 96,96 96,0 0,0 0,96 z"
         id="path834" /></clipPath><clipPath
       clipPathUnits="userSpaceOnUse"
       id="clipPath848"><path
         d="M 0,96 96,96 96,0 0,0 0,96 z"
         id="path850" /></clipPath><clipPath
       clipPathUnits="userSpaceOnUse"
       id="clipPath904"><path
         d="M 0,96 96,96 96,0 0,0 0,96 z"
         id="path906" /></clipPath><clipPath
       clipPathUnits="userSpaceOnUse"
       id="clipPath920"><path
         d="M 0,96 96,96 96,0 0,0 0,96 z"
         id="path922" /></clipPath><clipPath
       clipPathUnits="userSpaceOnUse"
       id="clipPath930"><path
         d="M 0,96 96,96 96,0 0,0 0,96 z"
         id="path932" /></clipPath><clipPath
       clipPathUnits="userSpaceOnUse"
       id="clipPath942"><path
         d="M 0,96 96,96 96,0 0,0 0,96 z"
         id="path944" /></clipPath><clipPath
       clipPathUnits="userSpaceOnUse"
       id="clipPath958"><path
         d="M 0,96 96,96 96,0 0,0 0,96 z"
         id="path960" /></clipPath><clipPath
       clipPathUnits="userSpaceOnUse"
       id="clipPath974"><path
         d="M 0,96 96,96 96,0 0,0 0,96 z"
         id="path976" /></clipPath><clipPath
       clipPathUnits="userSpaceOnUse"
       id="clipPath990"><path
         d="M 0,96 96,96 96,0 0,0 0,96 z"
         id="path992" /></clipPath><clipPath
       clipPathUnits="userSpaceOnUse"
       id="clipPath1022"><path
         d="M 0,96 96,96 96,0 0,0 0,96 z"
         id="path1024" /></clipPath><clipPath
       clipPathUnits="userSpaceOnUse"
       id="clipPath1038"><path
         d="M 0,96 96,96 96,0 0,0 0,96 z"
         id="path1040" /></clipPath><clipPath
       clipPathUnits="userSpaceOnUse"
       id="clipPath1054"><path
         d="M 0,96 96,96 96,0 0,0 0,96 z"
         id="path1056" /></clipPath><clipPath
       clipPathUnits="userSpaceOnUse"
       id="clipPath1066"><path
         d="M 0,96 96,96 96,0 0,0 0,96 z"
         id="path1068" /></clipPath><clipPath
       clipPathUnits="userSpaceOnUse"
       id="clipPath1080"><path
         d="M 0,96 96,96 96,0 0,0 0,96 z"
         id="path1082" /></clipPath><clipPath
       clipPathUnits="userSpaceOnUse"
       id="clipPath1096"><path
         d="M 0,96 96,96 96,0 0,0 0,96 z"
         id="path1098" /></clipPath><clipPath
       clipPathUnits="userSpaceOnUse"
       id="clipPath1108"><path
         d="M 0,96 96,96 96,0 0,0 0,96 z"
         id="path1110" /></clipPath><clipPath
       clipPathUnits="userSpaceOnUse"
       id="clipPath1128"><path
         d="M 0,96 96,96 96,0 0,0 0,96 z"
         id="path1130" /></clipPath><clipPath
       clipPathUnits="userSpaceOnUse"
       id="clipPath1178"><path
         d="M 0,96 96,96 96,0 0,0 0,96 z"
         id="path1180" /></clipPath><clipPath
       clipPathUnits="userSpaceOnUse"
       id="clipPath1210"><path
         d="M 0,96 96,96 96,0 0,0 0,96 z"
         id="path1212" /></clipPath><clipPath
       clipPathUnits="userSpaceOnUse"
       id="clipPath1224"><path
         d="M 0,96 96,96 96,0 0,0 0,96 z"
         id="path1226" /></clipPath><clipPath
       clipPathUnits="userSpaceOnUse"
       id="clipPath1244"><path
         d="M 0,96 96,96 96,0 0,0 0,96 z"
         id="path1246" /></clipPath><clipPath
       clipPathUnits="userSpaceOnUse"
       id="clipPath1256"><path
         d="M 0,96 96,96 96,0 0,0 0,96 z"
         id="path1258" /></clipPath><clipPath
       clipPathUnits="userSpaceOnUse"
       id="clipPath1272"><path
         d="M 0,96 96,96 96,0 0,0 0,96 z"
         id="path1274" /></clipPath><clipPath
       clipPathUnits="userSpaceOnUse"
       id="clipPath1284"><path
         d="M 0,96 96,96 96,0 0,0 0,96 z"
         id="path1286" /></clipPath><clipPath
       clipPathUnits="userSpaceOnUse"
       id="clipPath1300"><path
         d="M 0,96 96,96 96,0 0,0 0,96 z"
         id="path1302" /></clipPath><clipPath
       clipPathUnits="userSpaceOnUse"
       id="clipPath1310"><path
         d="M 0,96 96,96 96,0 0,0 0,96 z"
         id="path1312" /></clipPath><clipPath
       clipPathUnits="userSpaceOnUse"
       id="clipPath1342"><path
         d="M 0,96 96,96 96,0 0,0 0,96 z"
         id="path1344" /></clipPath><clipPath
       clipPathUnits="userSpaceOnUse"
       id="clipPath1354"><path
         d="M 0,96 96,96 96,0 0,0 0,96 z"
         id="path1356" /></clipPath><clipPath
       clipPathUnits="userSpaceOnUse"
       id="clipPath1394"><path
         d="M 0,96 96,96 96,0 0,0 0,96 z"
         id="path1396" /></clipPath><clipPath
       clipPathUnits="userSpaceOnUse"
       id="clipPath1426"><path
         d="M 0,96 96,96 96,0 0,0 0,96 z"
         id="path1428" /></clipPath><clipPath
       clipPathUnits="userSpaceOnUse"
       id="clipPath1446"><path
         d="M 0,96 96,96 96,0 0,0 0,96 z"
         id="path1448" /></clipPath><clipPath
       clipPathUnits="userSpaceOnUse"
       id="clipPath1458"><path
         d="M 0,96 96,96 96,0 0,0 0,96 z"
         id="path1460" /></clipPath><clipPath
       clipPathUnits="userSpaceOnUse"
       id="clipPath1470"><path
         d="M 0,96 96,96 96,0 0,0 0,96 z"
         id="path1472" /></clipPath><clipPath
       clipPathUnits="userSpaceOnUse"
       id="clipPath1494"><path
         d="M 0,96 96,96 96,0 0,0 0,96 z"
         id="path1496" /></clipPath><clipPath
       clipPathUnits="userSpaceOnUse"
       id="clipPath1512"><path
         d="M 0,96 96,96 96,0 0,0 0,96 z"
         id="path1514" /></clipPath><clipPath
       clipPathUnits="userSpaceOnUse"
       id="clipPath1524"><path
         d="M 0,96 96,96 96,0 0,0 0,96 z"
         id="path1526" /></clipPath><clipPath
       clipPathUnits="userSpaceOnUse"
       id="clipPath1534"><path
         d="M 0,96 96,96 96,0 0,0 0,96 z"
         id="path1536" /></clipPath><clipPath
       clipPathUnits="userSpaceOnUse"
       id="clipPath1562"><path
         d="M 0,96 96,96 96,0 0,0 0,96 z"
         id="path1564" /></clipPath></defs><sodipodi:namedview
     pagecolor="#ffffff"
     bordercolor="#666666"
     borderopacity="1"
     objecttolerance="10"
     gridtolerance="10"
     guidetolerance="10"
     inkscape:pageopacity="0"
     inkscape:pageshadow="2"
     inkscape:window-width="1920"
     inkscape:window-height="1053"
     id="namedview4"
     showgrid="false"
     inkscape:zoom="5.5625733"
     inkscape:cx="244.15273"
     inkscape:cy="47.072123"
     inkscape:window-x="-9"
     inkscape:window-y="-9"
     inkscape:window-maximized="1"
     inkscape:current-layer="g10" /><g
     id="g10"
     inkscape:groupmode="layer"
     inkscape:label="All_Icons"
     transform="matrix(1.25,0,0,-1.25,0,120)"><g
       style="fill:#ffffff;fill-opacity:1"
       id="g152"
       transform="translate(64.589027,64.538954)"><path
         d="m 0,0 2.951,1.057 c -2.383,5.942 -7,10.737 -12.82,13.355 l -1.067,-2.968 C -5.99,9.151 -2.059,5.061 0,0"
         style="fill:#ffffff;fill-opacity:1;fill-rule:evenodd;stroke:none"
         id="path154"
         inkscape:connector-curvature="0" /></g><g
       style="fill:#ffffff;fill-opacity:1"
       id="g156"
       transform="translate(35.560727,75.983254)"><path
         d="m 0,0 -1.063,2.968 c -5.926,-2.664 -10.599,-7.591 -12.94,-13.686 l 2.951,-1.055 C -9.03,-6.563 -5.048,-2.338 0,0"
         style="fill:#ffffff;fill-opacity:1;fill-rule:evenodd;stroke:none"
         id="path158"
         inkscape:connector-curvature="0" /></g><g
       style="fill:#ffffff;fill-opacity:1"
       id="g164"
       transform="translate(44.606127,40.926554)"><path
         d="m 0,0 c -8.551,0 -15.484,6.933 -15.484,15.486 0,8.551 6.933,15.486 15.484,15.486 8.554,0 15.487,-6.935 15.487,-15.486 C 15.487,6.933 8.554,0 0,0 m 0,33.93 c -10.188,0 -18.443,-8.257 -18.443,-18.444 0,-10.187 8.255,-18.444 18.443,-18.444 10.188,0 18.447,8.257 18.447,18.444 C 18.447,25.673 10.188,33.93 0,33.93"
         style="fill:#ffffff;fill-opacity:1;fill-rule:nonzero;stroke:none"
         id="path166"
         inkscape:connector-curvature="0" /></g><g
       style="fill:#ffffff;fill-opacity:1"
       id="g168"
       transform="translate(44.919127,68.907554)"><path
         d="m 0,0 -1.958,0 -0.675,-12.603 0.175,-1.318 9.427,-8.387 1.489,1.527 -7.795,8.355 L 0,0 z"
         style="fill:#ffffff;fill-opacity:1;fill-rule:nonzero;stroke:none"
         id="path170"
         inkscape:connector-curvature="0" /></g><g
       style="fill:#ffffff;fill-opacity:1"
       id="g524"
       transform="matrix(1.0643339,0,0,1.0577275,80.62467,39.900995)"><path
         d="m 0,0 0.24,0.244 -2.894,2.91 -8.28,-8.304 -8.033,8.064 -0.244,0.24 -2.9,-2.91 8.281,-8.299 -8.039,-8.06 -0.242,-0.242 2.9,-2.911 8.277,8.305 8.036,-8.06 0.244,-0.245 2.898,2.911 -8.279,8.302 L 0,0 z"
         style="fill:#ffffff;fill-opacity:1;fill-rule:nonzero;stroke:none"
         id="path526"
         inkscape:connector-curvature="0" /></g></g></svg>